# xmcd
# 
# Track frame offsets:
#     150
#     30409
#     40942
#     63229
#     85790
#     97481
#     124846
#     138221
#     156189
#     169862
#     188651
#     210124
# 
# Disc length: 3038
# 
# Revision: 3
# Processed by: cddbd v1.5.2PL0 Copyright (c) Steve Scherf et al.
# Submitted via: BonkEnc v1.0.8
# 
DISCID=980bdc0c
DTITLE=Various Artist - The Essentail Guide To Salsa [CD2) - Latin Giants
DYEAR=2005
DGENRE=Salsa
TTITLE0=Mana - Y Yo?
TTITLE1=La Plata Sextette - Bilongo
TTITLE2=Fruko Y sus Tesos - Cachondea
TTITLE3=Jimmy Le M. and La Clave De Londres with Tit Allen - La Clave Tiene La Llave
TTITLE4=Rene Grand - Cool
TTITLE5=Willie Rosario feat. Gilberto Santa Rosa - La Mitad
TTITLE6=Tito Puente feat. Graciela and Vincentico Valdes - El Yoyo
TTITLE7=Alfredo De La Fe - Juaniquita
TTITLE8=Conjunto Sensacion - El Rincon
TTITLE9=Los Nemos Del Pacifico - La Mujer Es Para Quererla
TTITLE10=Latin Giants Of Jazz - A Sunny Ray
TTITLE11=Los Titanes - Llegaron Los Titanes
EXTD=
EXTT0=
EXTT1=
EXTT2=
EXTT3=
EXTT4=
EXTT5=
EXTT6=
EXTT7=
EXTT8=
EXTT9=
EXTT10=
EXTT11=
PLAYORDER=
